# xmcd
#
# Track frame offsets: 
#        150
#        27897
#        41928
#        58636
#        74154
#        95685
#        118921
#        135132
#
# Disc length: 2041 seconds
#
# Revision: 0
# Processed by: cddbd v1.5.2PL0 Copyright (c) Steve Scherf et al.
# Submitted via: ExactAudioCopy v0.99pb5
#
DISCID=7507f708
DTITLE=Frank Morey and His Band - Frank Morey and His Band
DYEAR=2010
DGENRE=
TTITLE0=Junco Partner
TTITLE1=The Sun is Yellow and the Sky is Blue
TTITLE2=The Root
TTITLE3=Freedom Road
TTITLE4=Wake Up Baby
TTITLE5=Long Black Veil
TTITLE6=Glory Hallelujah
TTITLE7=Got to Move
EXTD=
EXTT0=
EXTT1=
EXTT2=
EXTT3=
EXTT4=
EXTT5=
EXTT6=
EXTT7=
PLAYORDER=
